<?xml version="1.0" encoding="UTF-8"?><svg xmlns="http://www.w3.org/2000/svg" xmlns:xlink="http://www.w3.org/1999/xlink" fill-opacity="1" color-rendering="auto" color-interpolation="auto" text-rendering="auto" stroke="black" stroke-linecap="square" width="922" stroke-miterlimit="10" shape-rendering="auto" stroke-opacity="1" fill="black" stroke-dasharray="none" font-weight="normal" stroke-width="1" height="148" font-family="'Dialog'" font-style="normal" stroke-linejoin="miter" font-size="12px" stroke-dashoffset="0" image-rendering="auto">
  <!--Generated by ySVG 2.5-->
  <defs id="genericDefs"/>
  <g>
    <defs id="defs1">
      <clipPath clipPathUnits="userSpaceOnUse" id="clipPath1">
        <path d="M0 0 L922 0 L922 148 L0 148 L0 0 Z"/>
      </clipPath>
      <clipPath clipPathUnits="userSpaceOnUse" id="clipPath2">
        <path d="M-15 -153 L907 -153 L907 -5 L-15 -5 L-15 -153 Z"/>
      </clipPath>
    </defs>
    <g fill="white" text-rendering="geometricPrecision" shape-rendering="geometricPrecision" transform="translate(15,153)" stroke="white">
      <rect x="-15" width="922" height="148" y="-153" clip-path="url(#clipPath2)" stroke="none"/>
    </g>
    <g fill="white" text-rendering="geometricPrecision" shape-rendering="geometricPrecision" transform="matrix(1,0,0,1,15,153)" stroke="white">
      <path d="M0 -54.3333 Q0 -64.3333 10 -64.3333 L47.3442 -64.3333 Q57.3442 -64.3333 57.3442 -54.3333 L57.3442 -34.3333 Q57.3442 -24.3333 47.3442 -24.3333 L10 -24.3333 Q0 -24.3333 0 -34.3333 Z" stroke="none" clip-path="url(#clipPath2)"/>
    </g>
    <g text-rendering="geometricPrecision" stroke-miterlimit="1.45" shape-rendering="geometricPrecision" transform="matrix(1,0,0,1,15,153)" stroke-linecap="butt">
      <path fill="none" d="M0 -54.3333 Q0 -64.3333 10 -64.3333 L47.3442 -64.3333 Q57.3442 -64.3333 57.3442 -54.3333 L57.3442 -34.3333 Q57.3442 -24.3333 47.3442 -24.3333 L10 -24.3333 Q0 -24.3333 0 -34.3333 Z" clip-path="url(#clipPath2)"/>
      <text x="7" xml:space="preserve" y="-39.6799" clip-path="url(#clipPath2)" font-family="sans-serif" stroke="none">request</text>
    </g>
    <g fill="white" text-rendering="geometricPrecision" shape-rendering="geometricPrecision" transform="matrix(1,0,0,1,15,153)" stroke="white">
      <path d="M603.0505 -121.8333 Q603.0505 -131.8333 613.0505 -131.8333 L659.0659 -131.8333 Q669.0659 -131.8333 669.0659 -121.8333 L669.0659 -101.8333 Q669.0659 -91.8333 659.0659 -91.8333 L613.0505 -91.8333 Q603.0505 -91.8333 603.0505 -101.8333 Z" stroke="none" clip-path="url(#clipPath2)"/>
    </g>
    <g text-rendering="geometricPrecision" stroke-miterlimit="1.45" shape-rendering="geometricPrecision" transform="matrix(1,0,0,1,15,153)" stroke-linecap="butt">
      <path fill="none" d="M603.0505 -121.8333 Q603.0505 -131.8333 613.0505 -131.8333 L659.0659 -131.8333 Q669.0659 -131.8333 669.0659 -121.8333 L669.0659 -101.8333 Q669.0659 -91.8333 659.0659 -91.8333 L613.0505 -91.8333 Q603.0505 -91.8333 603.0505 -101.8333 Z" clip-path="url(#clipPath2)"/>
      <text x="610.0505" xml:space="preserve" y="-107.1799" clip-path="url(#clipPath2)" font-family="sans-serif" stroke="none">response</text>
    </g>
    <g fill="white" text-rendering="geometricPrecision" shape-rendering="geometricPrecision" transform="matrix(1,0,0,1,15,153)" stroke="white">
      <path d="M689.0659 -121.8333 Q689.0659 -131.8333 699.0659 -131.8333 L751.15 -131.8333 Q761.15 -131.8333 761.15 -121.8333 L761.15 -101.8333 Q761.15 -91.8333 751.15 -91.8333 L699.0659 -91.8333 Q689.0659 -91.8333 689.0659 -101.8333 Z" stroke="none" clip-path="url(#clipPath2)"/>
    </g>
    <g text-rendering="geometricPrecision" stroke-miterlimit="1.45" shape-rendering="geometricPrecision" transform="matrix(1,0,0,1,15,153)" stroke-linecap="butt">
      <path fill="none" d="M689.0659 -121.8333 Q689.0659 -131.8333 699.0659 -131.8333 L751.15 -131.8333 Q761.15 -131.8333 761.15 -121.8333 L761.15 -101.8333 Q761.15 -91.8333 751.15 -91.8333 L699.0659 -91.8333 Q689.0659 -91.8333 689.0659 -101.8333 Z" clip-path="url(#clipPath2)"/>
      <text x="696.0659" xml:space="preserve" y="-107.1799" clip-path="url(#clipPath2)" font-family="sans-serif" stroke="none">access-log</text>
    </g>
    <g fill="white" text-rendering="geometricPrecision" shape-rendering="geometricPrecision" transform="matrix(1,0,0,1,15,153)" stroke="white">
      <path d="M110.5108 -89.8333 Q110.5108 -99.8333 120.5108 -99.8333 L145.5018 -99.8333 Q155.5018 -99.8333 155.5018 -89.8333 L155.5018 -69.8333 Q155.5018 -59.8333 145.5018 -59.8333 L120.5108 -59.8333 Q110.5108 -59.8333 110.5108 -69.8333 Z" stroke="none" clip-path="url(#clipPath2)"/>
    </g>
    <g text-rendering="geometricPrecision" stroke-miterlimit="1.45" shape-rendering="geometricPrecision" transform="matrix(1,0,0,1,15,153)" stroke-linecap="butt">
      <path fill="none" d="M110.5108 -89.8333 Q110.5108 -99.8333 120.5108 -99.8333 L145.5018 -99.8333 Q155.5018 -99.8333 155.5018 -89.8333 L155.5018 -69.8333 Q155.5018 -59.8333 145.5018 -59.8333 L120.5108 -59.8333 Q110.5108 -59.8333 110.5108 -69.8333 Z" clip-path="url(#clipPath2)"/>
      <text x="117.5108" xml:space="preserve" y="-75.1799" clip-path="url(#clipPath2)" font-family="sans-serif" stroke="none">index</text>
    </g>
    <g fill="white" text-rendering="geometricPrecision" shape-rendering="geometricPrecision" transform="matrix(1,0,0,1,15,153)" stroke="white">
      <path d="M328.7472 -111.8333 Q328.7472 -121.8333 338.7472 -121.8333 L349.8258 -121.8333 Q359.8258 -121.8333 359.8258 -111.8333 L359.8258 -91.8333 Q359.8258 -81.8333 349.8258 -81.8333 L338.7472 -81.8333 Q328.7472 -81.8333 328.7472 -91.8333 Z" stroke="none" clip-path="url(#clipPath2)"/>
    </g>
    <g text-rendering="geometricPrecision" stroke-miterlimit="1.45" shape-rendering="geometricPrecision" transform="matrix(1,0,0,1,15,153)" stroke-linecap="butt">
      <path fill="none" d="M328.7472 -111.8333 Q328.7472 -121.8333 338.7472 -121.8333 L349.8258 -121.8333 Q359.8258 -121.8333 359.8258 -111.8333 L359.8258 -91.8333 Q359.8258 -81.8333 349.8258 -81.8333 L338.7472 -81.8333 Q328.7472 -81.8333 328.7472 -91.8333 Z" clip-path="url(#clipPath2)"/>
      <text x="335.7472" xml:space="preserve" y="-97.1799" clip-path="url(#clipPath2)" font-family="sans-serif" stroke="none">file</text>
    </g>
    <g fill="white" text-rendering="geometricPrecision" shape-rendering="geometricPrecision" transform="matrix(1,0,0,1,15,153)" stroke="white">
      <path d="M417.1591 -75.5 Q417.1591 -85.5 427.1591 -85.5 L450.0392 -85.5 Q460.0392 -85.5 460.0392 -75.5 L460.0392 -55.5 Q460.0392 -45.5 450.0392 -45.5 L427.1591 -45.5 Q417.1591 -45.5 417.1591 -55.5 Z" stroke="none" clip-path="url(#clipPath2)"/>
    </g>
    <g text-rendering="geometricPrecision" stroke-miterlimit="1.45" shape-rendering="geometricPrecision" transform="matrix(1,0,0,1,15,153)" stroke-linecap="butt">
      <path fill="none" d="M417.1591 -75.5 Q417.1591 -85.5 427.1591 -85.5 L450.0392 -85.5 Q460.0392 -85.5 460.0392 -75.5 L460.0392 -55.5 Q460.0392 -45.5 450.0392 -45.5 L427.1591 -45.5 Q417.1591 -45.5 417.1591 -55.5 Z" clip-path="url(#clipPath2)"/>
      <text x="424.1591" xml:space="preserve" y="-60.8466" clip-path="url(#clipPath2)" font-family="sans-serif" stroke="none">error</text>
    </g>
    <g fill="white" text-rendering="geometricPrecision" shape-rendering="geometricPrecision" transform="matrix(1,0,0,1,15,153)" stroke="white">
      <path d="M201.0018 -111.8333 Q201.0018 -121.8333 211.0018 -121.8333 L265.5805 -121.8333 Q275.5805 -121.8333 275.5805 -111.8333 L275.5805 -91.8333 Q275.5805 -81.8333 265.5805 -81.8333 L211.0018 -81.8333 Q201.0018 -81.8333 201.0018 -91.8333 Z" stroke="none" clip-path="url(#clipPath2)"/>
    </g>
    <g text-rendering="geometricPrecision" stroke-miterlimit="1.45" shape-rendering="geometricPrecision" transform="matrix(1,0,0,1,15,153)" stroke-linecap="butt">
      <path fill="none" d="M201.0018 -111.8333 Q201.0018 -121.8333 211.0018 -121.8333 L265.5805 -121.8333 Q275.5805 -121.8333 275.5805 -111.8333 L275.5805 -91.8333 Q275.5805 -81.8333 265.5805 -81.8333 L211.0018 -81.8333 Q201.0018 -81.8333 201.0018 -91.8333 Z" clip-path="url(#clipPath2)"/>
      <text x="208.0018" xml:space="preserve" y="-97.1799" clip-path="url(#clipPath2)" font-family="sans-serif" stroke="none">auto-index</text>
    </g>
    <g fill="white" text-rendering="geometricPrecision" shape-rendering="geometricPrecision" transform="matrix(1,0,0,1,15,153)" stroke="white">
      <path d="M821.0201 -50 Q821.0201 -60 831.0201 -60 L881.9648 -60 Q891.9648 -60 891.9648 -50 L891.9648 -30 Q891.9648 -20 881.9648 -20 L831.0201 -20 Q821.0201 -20 821.0201 -30 Z" stroke="none" clip-path="url(#clipPath2)"/>
    </g>
    <g text-rendering="geometricPrecision" stroke-miterlimit="1.45" shape-rendering="geometricPrecision" transform="matrix(1,0,0,1,15,153)" stroke-linecap="butt">
      <path fill="none" d="M821.0201 -50 Q821.0201 -60 831.0201 -60 L881.9648 -60 Q891.9648 -60 891.9648 -50 L891.9648 -30 Q891.9648 -20 881.9648 -20 L831.0201 -20 Q821.0201 -20 821.0201 -30 Z" clip-path="url(#clipPath2)"/>
      <text x="828.0201" xml:space="preserve" y="-35.3466" clip-path="url(#clipPath2)" font-family="sans-serif" stroke="none">keep-alive</text>
    </g>
    <g fill="white" text-rendering="geometricPrecision" shape-rendering="geometricPrecision" transform="matrix(1,0,0,1,15,153)" stroke="white">
      <path d="M524.0392 -121.8333 Q524.0392 -131.8333 534.0392 -131.8333 L573.0505 -131.8333 Q583.0505 -131.8333 583.0505 -121.8333 L583.0505 -101.8333 Q583.0505 -91.8333 573.0505 -91.8333 L534.0392 -91.8333 Q524.0392 -91.8333 524.0392 -101.8333 Z" stroke="none" clip-path="url(#clipPath2)"/>
    </g>
    <g text-rendering="geometricPrecision" stroke-miterlimit="1.45" shape-rendering="geometricPrecision" transform="matrix(1,0,0,1,15,153)" stroke-linecap="butt">
      <path fill="none" d="M524.0392 -121.8333 Q524.0392 -131.8333 534.0392 -131.8333 L573.0505 -131.8333 Q583.0505 -131.8333 583.0505 -121.8333 L583.0505 -101.8333 Q583.0505 -91.8333 573.0505 -91.8333 L534.0392 -91.8333 Q524.0392 -91.8333 524.0392 -101.8333 Z" clip-path="url(#clipPath2)"/>
      <text x="531.0392" xml:space="preserve" y="-107.1799" clip-path="url(#clipPath2)" font-family="sans-serif" stroke="none">transfer</text>
    </g>
    <g text-rendering="geometricPrecision" stroke-miterlimit="1.45" shape-rendering="geometricPrecision" transform="matrix(1,0,0,1,15,153)" stroke-linecap="butt">
      <path fill="none" d="M669.0659 -111.8333 L681.0269 -111.8333" clip-path="url(#clipPath2)"/>
    </g>
    <g text-rendering="geometricPrecision" stroke-miterlimit="1.45" shape-rendering="geometricPrecision" transform="matrix(1,0,0,1,15,153)" stroke-linecap="butt">
      <path d="M689.0269 -111.8333 L677.0269 -116.8333 L680.0269 -111.8333 L677.0269 -106.8333 Z" stroke="none" clip-path="url(#clipPath2)"/>
      <path fill="none" d="M57.0314 -57.6667 L72.8442 -57.6667 L95.0108 -79.8333 L102.4806 -79.8333" clip-path="url(#clipPath2)"/>
      <path d="M110.4806 -79.8333 L98.4806 -84.8333 L101.4806 -79.8333 L98.4806 -74.8333 Z" clip-path="url(#clipPath2)" stroke="none"/>
      <path fill="none" d="M359.8258 -91.8333 L379.4925 -91.8333 L390.8258 -80.5 L410.0029 -80.5" clip-path="url(#clipPath2)"/>
      <path d="M418.0029 -80.5 L406.0029 -85.5 L409.0029 -80.5 L406.0029 -75.5 Z" clip-path="url(#clipPath2)" stroke="none"/>
      <path fill="none" d="M155.5018 -69.8333 L171.0018 -69.8333 L185.5018 -55.3333 L385.6591 -55.3333 L390.8258 -60.5 L409.1334 -60.5" clip-path="url(#clipPath2)"/>
      <path d="M417.1334 -60.5 L405.1334 -65.5 L408.1334 -60.5 L405.1334 -55.5 Z" clip-path="url(#clipPath2)" stroke="none"/>
      <path fill="none" d="M57.3442 -44.3333 L395.4925 -44.3333 L401.6591 -50.5 L410.0029 -50.5" clip-path="url(#clipPath2)"/>
      <path d="M418.0029 -50.5 L406.0029 -55.5 L409.0029 -50.5 L406.0029 -45.5 Z" clip-path="url(#clipPath2)" stroke="none"/>
      <path fill="none" d="M155.5018 -89.8333 L171.0018 -89.8333 L183.0018 -101.8333 L192.9667 -101.8333" clip-path="url(#clipPath2)"/>
      <path d="M200.9667 -101.8333 L188.9667 -106.8333 L191.9667 -101.8333 L188.9667 -96.8333 Z" clip-path="url(#clipPath2)" stroke="none"/>
      <path fill="none" d="M275.5805 -101.8333 L320.7212 -101.8333" clip-path="url(#clipPath2)"/>
      <path d="M328.7212 -101.8333 L316.7212 -106.8333 L319.7212 -101.8333 L316.7212 -96.8333 Z" clip-path="url(#clipPath2)" stroke="none"/>
      <path fill="none" d="M275.2677 -88.5 L291.0805 -88.5 L313.2472 -66.3333 L374.8258 -66.3333 L378.9925 -70.5 L409.1219 -70.5" clip-path="url(#clipPath2)"/>
      <path d="M417.1219 -70.5 L405.1219 -75.5 L408.1219 -70.5 L405.1219 -65.5 Z" clip-path="url(#clipPath2)" stroke="none"/>
      <path fill="none" d="M761.15 -111.8333 L776.65 -111.8333 L791.085 -97.3983 L791.085 -64.435 L805.5201 -50 L812.9898 -50" clip-path="url(#clipPath2)"/>
      <path d="M820.9898 -50 L808.9898 -55 L811.9898 -50 L808.9898 -45 Z" clip-path="url(#clipPath2)" stroke="none"/>
      <path fill="none" d="M820.9745 -30 L73.8442 -30 L72.8442 -31 L65.0314 -31" clip-path="url(#clipPath2)"/>
      <path d="M57.0314 -31 L69.0314 -26 L66.0314 -31 L69.0314 -36 Z" clip-path="url(#clipPath2)" stroke="none"/>
      <path fill="none" d="M460.0392 -65.5 L475.5392 -65.5 L508.5392 -98.5 L516.3521 -98.5" clip-path="url(#clipPath2)"/>
      <path d="M524.3521 -98.5 L512.3521 -103.5 L515.3521 -98.5 L512.3521 -93.5 Z" clip-path="url(#clipPath2)" stroke="none"/>
      <path fill="none" d="M359.8258 -111.8333 L515.9991 -111.8333" clip-path="url(#clipPath2)"/>
      <path d="M523.9991 -111.8333 L511.9991 -116.8333 L514.9991 -111.8333 L511.9991 -106.8333 Z" clip-path="url(#clipPath2)" stroke="none"/>
      <path fill="none" d="M275.2677 -115.1667 L291.0805 -115.1667 L313.2472 -137.3333 L454.0992 -137.3333 L466.2659 -125.1667 L516.3546 -125.1667" clip-path="url(#clipPath2)"/>
      <path d="M524.3546 -125.1667 L512.3546 -130.1667 L515.3546 -125.1667 L512.3546 -120.1667 Z" clip-path="url(#clipPath2)" stroke="none"/>
      <path fill="none" d="M583.0505 -111.8333 L595.0115 -111.8333" clip-path="url(#clipPath2)"/>
      <path d="M603.0115 -111.8333 L591.0115 -116.8333 L594.0115 -111.8333 L591.0115 -106.8333 Z" clip-path="url(#clipPath2)" stroke="none"/>
    </g>
  </g>
</svg>
